<svg width="159" height="148" viewBox="0 0 159 148" fill="none" xmlns="http://www.w3.org/2000/svg">
<path d="M118.69 148H28.4472L28.0884 147.874C-0.564724 137.956 -0.121609 126.923 0.0260877 125.702L0.258152 123.828H151.647L150.17 126.839C143.186 141.031 119.956 147.621 118.985 147.895L118.69 148ZM29.2278 143.789H118.078C120.441 143.094 137.089 137.851 144.389 128.081H4.90008C6.25045 131.134 11.2088 137.493 29.2278 143.789Z" fill="#009FE3"/>
<path d="M102.698 127.429H47.3752L46.7633 126.881C46.3625 126.523 36.9732 118.206 27.9426 105.446C15.8737 88.4125 10.3877 71.6312 12.0757 56.9133L12.2867 55.0393H137.66L138.061 56.6606C138.356 57.8397 144.813 85.9279 103.331 126.797L102.698 127.429ZM49.0843 123.196H100.884C134.348 89.9496 134.685 65.5882 134.094 59.2715H16.2534C15.1141 75.8844 23.8281 92.1183 31.5084 102.983C38.9565 113.553 46.8689 121.154 49.0843 123.196Z" fill="#009FE3"/>
<path d="M116.79 111.405L114.701 107.7C120.883 104.415 147.448 94.6452 152.596 92.7712C155.065 87.5494 155.318 83.5067 153.334 80.7274C149.558 75.4003 138.037 75.1055 133.944 75.4424L133.564 71.2313C134.26 71.1681 150.95 69.8838 156.921 78.3271C159.939 82.5803 159.664 88.3075 156.141 95.3611L155.761 96.1191L154.959 96.4139C154.643 96.5402 123.225 107.994 116.79 111.405Z" fill="#009FE3"/>
<path d="M55.2212 47.7754C54.8415 47.4385 46.1063 39.5426 50.0941 31.7731L53.6598 24.9511C53.8708 24.6984 58.9558 18.2344 52.1618 8.84357L55.7276 6.42212C63.8087 17.6237 58.3018 25.9617 57.2046 27.4146L53.9764 33.6681C51.4444 38.5741 58.0696 44.617 58.154 44.6802L55.2212 47.7754Z" fill="#009FE3"/>
<path d="M74.4678 41.3532C74.088 41.0163 65.3528 33.1205 69.3407 25.351L72.9065 18.5289C73.1175 18.2763 78.2024 11.8122 71.4084 2.42138L74.9742 0C83.0553 11.2016 77.5484 19.5396 76.4512 20.9925L73.223 27.246C70.691 32.1519 77.3162 38.1949 77.4006 38.2581L74.4678 41.3532Z" fill="#009FE3"/>
<path d="M96.9996 47.7754C96.6198 47.4385 87.8846 39.5426 91.8724 31.7731L95.4382 24.9511C95.6492 24.6984 100.734 18.2344 93.9402 8.84357L97.5059 6.42212C105.587 17.6237 100.08 25.9617 98.9829 27.4146L95.7547 33.6681C93.2228 38.5741 99.848 44.617 99.9324 44.6802L96.9996 47.7754Z" fill="#009FE3"/>
</svg>
