<svg width="121" height="171" viewBox="0 0 121 171" fill="none" xmlns="http://www.w3.org/2000/svg">
<path d="M80.7368 170.213H41.0536L40.6974 170.065C-7.07338 151.893 0.385535 108.612 0.469343 108.17C0.678864 106.968 6.02159 78.1284 26.9946 57.616C46.8572 38.1999 45.8725 3.66821 45.8515 3.30982L45.7258 0L48.8059 1.37035C103.931 25.9726 96.367 69.2952 94.4185 77.3694C95.8432 78.4024 96.7652 78.1705 97.1004 78.0862C100.683 77.2008 104.245 69.4639 105.649 64.8048L107.367 59.1128L109.588 64.6361C123.228 98.4721 124.652 125.541 113.799 145.126C102.422 165.638 81.8473 169.96 80.9673 170.15L80.7368 170.213ZM41.8288 166.123H80.2968C82.3082 165.659 100.285 161 110.133 143.144C119.791 125.646 118.953 101.466 107.66 71.2347C105.754 75.5143 102.506 80.9744 98.1061 82.0917C96.3042 82.5344 93.5595 82.4712 90.5634 79.562L89.6625 78.6765L90.0396 77.4959C90.6472 75.6407 103.784 32.2338 50.0001 6.49316C49.7906 15.9377 47.5697 43.2805 29.928 60.5253C9.85588 80.1312 4.59693 108.612 4.55503 108.907C4.2617 110.552 -2.25445 149.131 41.8288 166.123Z" fill="#009FE3"/>
<path d="M79.7729 170.213H40.844L40.3202 169.897C32.4213 164.942 27.246 159.777 24.9413 154.57C23.4118 151.134 23.6214 148.689 23.789 147.74C22.5528 123.327 34.0974 107.98 34.6002 107.348L39.3144 101.192L38.3297 108.823C37.4707 115.527 38.4345 120.481 41.1792 123.559C42.583 125.14 44.2383 125.963 45.5582 126.384C41.5773 84.5372 65.4627 72.9424 66.4894 72.4786L71.5807 70.1174L69.2969 75.156C69.2759 75.2192 65.2741 86.3502 87.2319 114.958C94.6699 124.634 97.687 134.501 96.2204 144.24C93.8738 159.883 80.8624 169.454 80.2967 169.854L79.7729 170.213ZM42.0591 166.123H78.3482C80.6948 164.247 90.2699 155.856 92.0928 143.566C93.3708 134.943 90.6052 126.131 83.8796 117.361C68.0817 96.7646 64.9599 84.5373 64.7713 78.3814C58.4437 83.2935 46.2077 97.1019 49.9791 128.577L50.2515 130.853H47.9049C47.6744 130.853 42.164 130.811 38.0574 126.258C35.8155 123.791 34.4745 120.524 33.9926 116.497C30.8917 123.011 27.1832 133.889 27.9165 147.719L27.9375 148.056L27.8327 148.393C27.8746 148.457 26.2822 156.025 42.0591 166.123Z" fill="#009FE3"/>
</svg>
