<svg width="127" height="200" viewBox="0 0 127 200" fill="none" xmlns="http://www.w3.org/2000/svg">
<path d="M64.3079 200C63.1745 200 62.272 199.11 62.272 197.987V171.117L0 112.757L6.0026 83.344L61.0966 138.101L62.293 136.999V106.569L13.9362 63.8695L27.7253 42.7209L62.293 77.3257V50.159L38.0306 28.3958L66.3857 0V47.8067L87.8146 28.184L102.59 46.0691L66.4067 79.5296V104.747L66.7215 105.022L109.789 60.6273L121.648 87.2007L66.4276 138.695V169.379L66.7845 169.697L123.474 111.358C124.25 110.553 125.551 110.532 126.37 111.295C127.188 112.058 127.21 113.329 126.433 114.134L66.9314 175.397L66.4486 174.952V197.987C66.3437 199.089 65.4203 200 64.3079 200ZM4.42848 111.38L62.251 165.565V142.53L60.9707 143.717L8.47919 91.5448L4.42848 111.38ZM66.3437 110.172V133.164L116.673 86.2471L108.446 67.7898L66.8894 110.638L66.3437 110.172ZM19.2041 63.1702L62.251 101.166V83.0685L28.3551 49.1418L19.2041 63.1702ZM66.3437 53.3376V74.0623L96.9655 45.7512L87.3529 34.0962L66.3437 53.3376ZM43.8863 28.2687L62.251 44.7552V9.87498L43.8863 28.2687Z" fill="#009FE3"/>
</svg>
