<svg width="188" height="71" viewBox="0 0 188 71" fill="none" xmlns="http://www.w3.org/2000/svg">
<path d="M0 0H5.42929V52.9443H32.41V0H37.8393V52.9443H64.8212V0H70.2493V57.6243H0V0Z" fill="white"/>
<path d="M86.4533 58.2706C85.1771 58.2706 84.0192 58.1904 82.981 58.0276C81.9427 57.8672 81.1318 57.6781 80.5469 57.4639V52.6211C81.2383 52.8904 82.0635 53.1191 83.0212 53.3058C83.979 53.4949 85.0966 53.5883 86.374 53.5883C88.3961 53.5883 90.0855 52.9431 91.4434 51.6516C92.8013 50.3602 94.119 48.3422 95.3964 45.5988L96.1126 44.0644L74.959 0H80.7861L99.3055 38.2546L117.348 0H123.094L100.663 46.9705C99.4938 49.4457 98.349 51.4242 97.2326 52.9024C96.1138 54.383 94.9832 55.5261 93.8384 56.3316C92.6947 57.1395 91.5239 57.6637 90.327 57.9055C89.1289 58.1497 87.8373 58.2706 86.4533 58.2706Z" fill="white"/>
<path d="M127.402 0H135.385L155.104 50.5218L174.741 0H182.725V57.6243H177.297V7.83021H177.137L157.659 57.6243H152.548L132.993 7.83021H132.83V57.6243H127.402V0Z" fill="white"/>
<path d="M83.5771 70.8292V64.3706H85.9106C86.325 64.3706 86.6659 64.4185 86.9346 64.5142C87.2046 64.6112 87.4165 64.7417 87.5739 64.9092C87.7302 65.0768 87.8403 65.2695 87.9019 65.4873C87.9635 65.7064 87.9954 65.9338 87.9954 66.1732C87.9954 66.5311 87.922 66.8279 87.7776 67.0601C87.6331 67.2935 87.4449 67.4778 87.2152 67.6119C86.9832 67.7459 86.7227 67.8405 86.4291 67.8943C86.1367 67.9482 85.8419 67.9745 85.5471 67.9745H84.1809V70.8268H83.5771V70.8292ZM85.5649 67.4575C85.8479 67.4575 86.1024 67.4395 86.3285 67.4036C86.5523 67.3677 86.7429 67.3006 86.9003 67.2013C87.0566 67.1031 87.1774 66.9679 87.2638 66.798C87.349 66.6268 87.3916 66.4054 87.3916 66.1289C87.3916 65.7219 87.2602 65.4143 86.9974 65.206C86.7334 64.9966 86.3155 64.8925 85.7413 64.8925H84.1809V67.4575H85.5649Z" fill="white"/>
<path d="M88.5259 67.6102C88.5259 67.1363 88.5898 66.6946 88.7177 66.2828C88.8432 65.8699 89.0314 65.5097 89.28 65.2033C89.5287 64.8933 89.8353 64.6515 90.2023 64.4719C90.5693 64.2924 90.9907 64.2026 91.4714 64.2026C91.9674 64.2026 92.4031 64.29 92.7784 64.4683C93.1549 64.6431 93.4674 64.8861 93.7196 65.1925C93.9706 65.5013 94.1588 65.8639 94.2878 66.2781C94.4122 66.6946 94.4773 67.1375 94.4773 67.6102C94.4773 68.0758 94.4122 68.5139 94.2878 68.9233C94.1588 69.3338 93.9706 69.6929 93.722 69.9993C93.4745 70.3069 93.1631 70.551 92.7914 70.7294C92.4197 70.9077 91.9864 70.9999 91.4962 70.9999C91.0049 70.9999 90.574 70.9089 90.2011 70.7294C89.8282 70.551 89.518 70.3057 89.2694 69.9993C89.0208 69.6929 88.8349 69.3326 88.7118 68.9233C88.5875 68.5139 88.5259 68.0746 88.5259 67.6102ZM91.5057 70.4792C91.9213 70.4792 92.2764 70.4002 92.5748 70.2411C92.8731 70.0831 93.1182 69.8712 93.3112 69.6091C93.503 69.3458 93.6462 69.0418 93.7373 68.6946C93.8273 68.3475 93.8735 67.9861 93.8735 67.6102C93.8735 67.1614 93.8179 66.7592 93.7089 66.4037C93.6 66.0471 93.4414 65.7442 93.2342 65.4929C93.027 65.2427 92.776 65.0512 92.48 64.9184C92.1841 64.7879 91.8538 64.7221 91.4868 64.7221C91.0795 64.7221 90.7256 64.8023 90.4272 64.9639C90.1289 65.1254 89.8838 65.3385 89.6908 65.6054C89.499 65.8711 89.357 66.1775 89.2646 66.5246C89.1735 66.8705 89.1273 67.2332 89.1273 67.6102C89.1273 67.9921 89.1735 68.3571 89.2646 68.7042C89.357 69.0501 89.499 69.3553 89.6908 69.6187C89.8838 69.882 90.1289 70.0914 90.4272 70.2458C90.7279 70.4014 91.0866 70.4792 91.5057 70.4792Z" fill="white"/>
<path d="M100.439 69.9686H100.456L101.849 64.373H102.47L100.794 70.828H100.129L98.6463 65.1259H98.6297L97.1487 70.828H96.4822L94.833 64.373H95.4356L96.8113 69.9686H96.829L98.3101 64.373H98.9837L100.439 69.9686Z" fill="white"/>
<path d="M103.064 70.8282V64.3721H107.312V64.8915H103.668V67.2243H106.958V67.745H103.668V70.3088H107.402V70.8282H103.064Z" fill="white"/>
<path d="M108.829 67.897V70.8282L108.226 70.8198V64.3721H110.728C111.431 64.3721 111.968 64.5037 112.341 64.7707C112.713 65.0364 112.901 65.4696 112.901 66.0669C112.901 66.4738 112.82 66.7958 112.657 67.0352C112.493 67.2746 112.229 67.478 111.863 67.6456C112.051 67.7126 112.199 67.8072 112.307 67.9317C112.412 68.0574 112.492 68.2022 112.546 68.3626C112.599 68.5241 112.631 68.6929 112.648 68.8736C112.662 69.0532 112.673 69.2267 112.677 69.3943C112.683 69.6397 112.694 69.842 112.708 70.0047C112.724 70.1663 112.741 70.298 112.762 70.3985C112.783 70.5015 112.808 70.5793 112.836 70.6355C112.866 70.693 112.902 70.736 112.944 70.766V70.8198L112.277 70.8282C112.212 70.7205 112.166 70.5709 112.14 70.3806C112.114 70.1891 112.093 69.9892 112.077 69.7797C112.063 69.5703 112.052 69.3668 112.043 69.1693C112.033 68.9718 112.018 68.8114 111.993 68.6858C111.96 68.5122 111.902 68.3734 111.82 68.268C111.741 68.1639 111.644 68.0849 111.532 68.031C111.42 67.9772 111.294 67.9412 111.155 67.9233C111.018 67.9053 110.874 67.897 110.726 67.897H108.829ZM110.71 67.3775C110.934 67.3775 111.143 67.3536 111.335 67.3057C111.527 67.2578 111.694 67.1812 111.836 67.0771C111.978 66.9729 112.09 66.8389 112.173 66.6785C112.256 66.5169 112.296 66.3218 112.296 66.0944C112.296 65.8562 112.255 65.66 112.168 65.5032C112.083 65.3476 111.967 65.2267 111.823 65.1357C111.677 65.0459 111.513 64.9837 111.327 64.9466C111.14 64.9119 110.946 64.8927 110.745 64.8927H108.829V67.3775H110.71Z" fill="white"/>
<path d="M113.902 70.8282V64.3721H118.152V64.8915H114.507V67.2243H117.796V67.745H114.507V70.3088H118.24V70.8282H113.902Z" fill="white"/>
<path d="M119.071 70.8292V64.3706H121.254C121.43 64.3706 121.606 64.3766 121.776 64.385C121.949 64.3945 122.117 64.4149 122.283 64.4484C122.45 64.4807 122.609 64.531 122.766 64.5968C122.922 64.6626 123.075 64.7488 123.223 64.8566C123.437 65.0122 123.61 65.2013 123.746 65.4263C123.882 65.6513 123.991 65.8871 124.069 66.1349C124.148 66.3838 124.204 66.6352 124.237 66.8889C124.27 67.1427 124.287 67.3772 124.287 67.5927C124.287 67.8081 124.273 68.026 124.247 68.2474C124.221 68.4701 124.178 68.6855 124.119 68.8974C124.06 69.1104 123.983 69.3127 123.885 69.5078C123.787 69.7017 123.663 69.8812 123.515 70.0404C123.367 70.208 123.206 70.342 123.032 70.4438C122.858 70.5455 122.673 70.6257 122.482 70.6819C122.29 70.7382 122.09 70.7777 121.883 70.798C121.675 70.8208 121.467 70.8304 121.254 70.8304H119.071V70.8292ZM119.675 70.3085H121.123C121.394 70.3085 121.648 70.2917 121.887 70.2606C122.126 70.2283 122.37 70.1445 122.619 70.0141C122.832 69.9051 123.006 69.7591 123.143 69.5748C123.277 69.3893 123.387 69.1882 123.465 68.9692C123.546 68.7501 123.6 68.5227 123.636 68.2833C123.667 68.044 123.684 67.8129 123.684 67.5927C123.684 67.3593 123.668 67.1211 123.639 66.8793C123.61 66.6376 123.553 66.4065 123.47 66.1899C123.388 65.9697 123.275 65.7698 123.133 65.5891C122.992 65.4059 122.808 65.2551 122.583 65.1354C122.394 65.0337 122.168 64.9667 121.91 64.9379C121.648 64.908 121.386 64.8937 121.121 64.8937H119.673V70.3085H119.675Z" fill="white"/>
<path d="M128.396 70.8292V64.3706H130.703C131.074 64.3706 131.395 64.4101 131.662 64.4891C131.929 64.5657 132.145 64.677 132.314 64.8194C132.482 64.9631 132.604 65.1354 132.682 65.3365C132.758 65.5364 132.798 65.7566 132.798 65.9948C132.798 66.2222 132.77 66.4185 132.709 66.5825C132.65 66.7465 132.574 66.8841 132.481 66.9942C132.385 67.1055 132.277 67.1917 132.155 67.2552C132.036 67.3174 131.909 67.3617 131.78 67.3856V67.4036C132.224 67.4694 132.552 67.6454 132.77 67.9326C132.985 68.2187 133.092 68.5778 133.092 69.0074C133.092 69.3414 133.04 69.6274 132.937 69.8584C132.833 70.0918 132.689 70.2822 132.507 70.4258C132.325 70.5682 132.102 70.6711 131.845 70.7346C131.588 70.7968 131.309 70.8292 131.007 70.8292H128.396ZM129 67.2253H130.526C130.841 67.2253 131.102 67.1977 131.315 67.1438C131.53 67.0912 131.7 67.011 131.831 66.9069C131.96 66.8015 132.053 66.6747 132.109 66.5215C132.165 66.3683 132.193 66.1947 132.193 65.9972C132.193 65.7949 132.161 65.6226 132.096 65.4814C132.031 65.3401 131.928 65.2276 131.786 65.1414C131.643 65.0541 131.458 64.9918 131.231 64.9523C131.003 64.914 130.723 64.8948 130.394 64.8948H128.999V67.2253H129ZM129 70.3085H130.535C130.866 70.3085 131.154 70.2941 131.399 70.2642C131.645 70.2355 131.847 70.1732 132.007 70.0811C132.168 69.9877 132.287 69.8561 132.368 69.6861C132.447 69.5162 132.487 69.2899 132.487 69.0099C132.487 68.7405 132.443 68.5251 132.354 68.3599C132.265 68.1948 132.138 68.0691 131.973 67.9793C131.808 67.8896 131.61 67.8285 131.379 67.795C131.149 67.7627 130.892 67.7459 130.608 67.7459H129.003V70.3085H129Z" fill="white"/>
<path d="M136.025 67.4838L137.95 64.373H138.652L136.336 68.0141V70.828H135.733V68.0583L133.454 64.373H134.144L136.025 67.4838Z" fill="white"/>
<path d="M142.403 70.8292V64.3706H144.71C145.081 64.3706 145.402 64.4101 145.668 64.4891C145.936 64.5657 146.152 64.677 146.321 64.8194C146.489 64.9631 146.611 65.1354 146.689 65.3365C146.765 65.5364 146.805 65.7566 146.805 65.9948C146.805 66.2222 146.777 66.4185 146.716 66.5825C146.657 66.7465 146.581 66.8841 146.488 66.9942C146.392 67.1055 146.284 67.1917 146.162 67.2552C146.043 67.3174 145.916 67.3617 145.787 67.3856V67.4036C146.231 67.4694 146.559 67.6454 146.777 67.9326C146.992 68.2187 147.099 68.5778 147.099 69.0074C147.099 69.3414 147.047 69.6274 146.944 69.8584C146.839 70.0918 146.696 70.2822 146.514 70.4258C146.331 70.5682 146.109 70.6711 145.852 70.7346C145.595 70.7968 145.316 70.8292 145.014 70.8292H142.403ZM143.007 67.2253H144.533C144.848 67.2253 145.109 67.1977 145.322 67.1438C145.537 67.0912 145.706 67.011 145.838 66.9069C145.967 66.8015 146.06 66.6747 146.116 66.5215C146.172 66.3683 146.2 66.1947 146.2 65.9972C146.2 65.7949 146.168 65.6226 146.103 65.4814C146.038 65.3401 145.935 65.2276 145.793 65.1414C145.649 65.0541 145.465 64.9918 145.239 64.9523C145.01 64.914 144.73 64.8948 144.399 64.8948H143.006V67.2253H143.007ZM143.007 70.3085H144.541C144.873 70.3085 145.161 70.2941 145.406 70.2642C145.652 70.2355 145.854 70.1732 146.014 70.0811C146.174 69.9877 146.294 69.8561 146.375 69.6861C146.453 69.5162 146.494 69.2899 146.494 69.0099C146.494 68.7405 146.45 68.5251 146.361 68.3599C146.272 68.1948 146.144 68.0691 145.981 67.9793C145.814 67.8896 145.616 67.8285 145.387 67.795C145.156 67.7627 144.899 67.7459 144.615 67.7459H143.009V70.3085H143.007Z" fill="white"/>
<path d="M148.665 67.897V70.8282L148.062 70.8198V64.3721H150.564C151.267 64.3721 151.805 64.5037 152.178 64.7707C152.549 65.0364 152.738 65.4696 152.738 66.0669C152.738 66.4738 152.656 66.7958 152.494 67.0352C152.329 67.2746 152.065 67.478 151.699 67.6456C151.889 67.7126 152.037 67.8072 152.143 67.9317C152.249 68.0574 152.328 68.2022 152.381 68.3626C152.436 68.5241 152.468 68.6929 152.484 68.8736C152.498 69.0532 152.509 69.2267 152.514 69.3943C152.52 69.6397 152.532 69.842 152.545 70.0047C152.56 70.1663 152.577 70.298 152.598 70.3985C152.619 70.5015 152.644 70.5793 152.673 70.6355C152.702 70.693 152.739 70.736 152.78 70.766V70.8198L152.114 70.8282C152.049 70.7205 152.002 70.5709 151.976 70.3806C151.95 70.1891 151.929 69.9892 151.914 69.7797C151.899 69.5703 151.888 69.3668 151.879 69.1693C151.87 68.9718 151.854 68.8114 151.83 68.6858C151.796 68.5122 151.737 68.3734 151.657 68.268C151.577 68.1639 151.48 68.0849 151.368 68.031C151.257 67.9772 151.13 67.9412 150.991 67.9233C150.854 67.9053 150.711 67.897 150.563 67.897H148.665ZM150.546 67.3775C150.77 67.3775 150.98 67.3536 151.171 67.3057C151.363 67.2578 151.53 67.1812 151.672 67.0771C151.814 66.9729 151.927 66.8389 152.01 66.6785C152.092 66.5169 152.133 66.3218 152.133 66.0944C152.133 65.8562 152.091 65.66 152.005 65.5032C151.92 65.3476 151.804 65.2267 151.659 65.1357C151.513 65.0459 151.349 64.9837 151.163 64.9466C150.976 64.9119 150.782 64.8927 150.582 64.8927H148.665V67.3775H150.546Z" fill="white"/>
<path d="M153.153 70.8292L155.663 64.3706H156.346L158.795 70.8292H158.173L157.438 68.8028H154.528L153.774 70.8292H153.153ZM154.733 68.2821H157.233L155.983 64.8925L154.733 68.2821Z" fill="white"/>
<path d="M160.223 64.3721H159.621V70.8306H160.223V64.3721Z" fill="white"/>
<path d="M162.227 65.1965H162.21V70.828H161.607V64.373H162.291L165.978 70.0129H165.998V64.373H166.6V70.828H165.9L162.227 65.1965Z" fill="white"/>
<path d="M168.028 68.9007C168.053 69.188 168.116 69.431 168.219 69.632C168.323 69.8319 168.455 69.9947 168.618 70.1204C168.782 70.2449 168.968 70.337 169.184 70.3945C169.395 70.4507 169.624 70.4795 169.865 70.4795C170.148 70.4795 170.393 70.4436 170.601 70.3718C170.809 70.2987 170.976 70.2018 171.107 70.0797C171.236 69.9564 171.332 69.814 171.396 69.6536C171.458 69.4932 171.487 69.3232 171.487 69.1425C171.487 68.8924 171.432 68.6889 171.319 68.5333C171.207 68.3777 171.061 68.2508 170.88 68.1527C170.7 68.0533 170.493 67.9743 170.261 67.9145C170.026 67.8546 169.786 67.796 169.541 67.7397C169.296 67.6823 169.057 67.6152 168.824 67.5374C168.592 67.4596 168.383 67.3555 168.203 67.2227C168.023 67.0922 167.876 66.9222 167.764 66.7164C167.653 66.5093 167.596 66.2484 167.596 65.9324C167.596 65.7098 167.641 65.4967 167.732 65.2861C167.823 65.0766 167.959 64.8923 168.142 64.7295C168.32 64.5679 168.548 64.441 168.819 64.3453C169.09 64.2495 169.404 64.2017 169.759 64.2017C170.121 64.2017 170.435 64.2531 170.704 64.3549C170.974 64.4566 171.196 64.5954 171.374 64.7714C171.551 64.9473 171.684 65.152 171.773 65.3866C171.861 65.6188 171.905 65.8666 171.905 66.1299H171.329C171.329 65.8857 171.286 65.6727 171.202 65.4943C171.116 65.3148 171 65.1687 170.852 65.055C170.704 64.9413 170.533 64.8576 170.345 64.8037C170.155 64.7498 169.96 64.7235 169.759 64.7235C169.451 64.7235 169.192 64.7666 168.985 64.8528C168.773 64.9402 168.607 65.0526 168.484 65.1891C168.358 65.3255 168.272 65.4788 168.225 65.6463C168.177 65.8139 168.168 65.9803 168.2 66.149C168.234 66.3585 168.317 66.5249 168.448 66.6517C168.576 66.7762 168.737 66.8803 168.925 66.9605C169.115 67.0407 169.323 67.1066 169.551 67.158C169.779 67.2083 170.011 67.2621 170.247 67.3196C170.483 67.3759 170.714 67.4441 170.934 67.5207C171.157 67.5985 171.354 67.7038 171.524 67.8355C171.697 67.9659 171.833 68.1359 171.938 68.343C172.041 68.5488 172.093 68.8074 172.093 69.1174C172.093 69.7146 171.89 70.1791 171.48 70.507C171.072 70.8362 170.499 71.0001 169.759 71.0001C169.43 71.0001 169.121 70.957 168.838 70.8721C168.554 70.7847 168.309 70.6518 168.103 70.4771C167.895 70.2999 167.732 70.0821 167.617 69.8212C167.504 69.5615 167.444 69.255 167.444 68.9019H168.028V68.9007Z" fill="white"/>
<path d="M172.373 64.373H177.021V64.8925H175V70.8292H174.395V64.8925H172.373V64.373Z" fill="white"/>
<path d="M177.633 70.8282V64.3721H181.882V64.8915H178.238V67.2243H181.527V67.745H178.238V70.3088H181.971V70.8282H177.633Z" fill="white"/>
<path d="M183.398 67.897V70.8282L182.795 70.8198V64.3721H185.297C186 64.3721 186.537 64.5037 186.91 64.7707C187.282 65.0364 187.47 65.4696 187.47 66.0669C187.47 66.4738 187.388 66.7958 187.226 67.0352C187.062 67.2746 186.798 67.478 186.432 67.6456C186.621 67.7126 186.769 67.8072 186.876 67.9317C186.981 68.0574 187.06 68.2022 187.114 68.3626C187.168 68.5241 187.2 68.6929 187.217 68.8736C187.231 69.0532 187.242 69.2267 187.246 69.3943C187.252 69.6397 187.264 69.842 187.277 70.0047C187.293 70.1663 187.309 70.298 187.33 70.3985C187.352 70.5015 187.377 70.5793 187.405 70.6355C187.435 70.693 187.471 70.736 187.513 70.766V70.8198L186.846 70.8282C186.781 70.7205 186.735 70.5709 186.709 70.3806C186.683 70.1891 186.662 69.9892 186.646 69.7797C186.632 69.5703 186.62 69.3668 186.612 69.1693C186.602 68.9718 186.587 68.8114 186.562 68.6858C186.529 68.5122 186.47 68.3734 186.389 68.268C186.31 68.1639 186.213 68.0849 186.1 68.031C185.989 67.9772 185.862 67.9412 185.724 67.9233C185.587 67.9053 185.443 67.897 185.295 67.897H183.398ZM185.279 67.3775C185.502 67.3775 185.712 67.3536 185.904 67.3057C186.096 67.2578 186.263 67.1812 186.405 67.0771C186.547 66.9729 186.659 66.8389 186.742 66.6785C186.825 66.5169 186.865 66.3218 186.865 66.0944C186.865 65.8562 186.824 65.66 186.737 65.5032C186.652 65.3476 186.536 65.2267 186.392 65.1357C186.246 65.0459 186.081 64.9837 185.896 64.9466C185.708 64.9119 185.514 64.8927 185.314 64.8927H183.398V67.3775H185.279Z" fill="white"/>
</svg>
