<svg width="140" height="170" viewBox="0 0 140 170" fill="none" xmlns="http://www.w3.org/2000/svg">
<path d="M101.26 170C98.7652 170 96.3543 169.637 94.0063 168.931C82.3292 165.362 76.8156 154.119 76.0608 152.451L2.05689 41.7726C1.95207 41.5803 -0.249188 37.1984 0.0233478 30.7005C0.274919 24.8011 2.70676 15.9091 12.8116 7.08131C18.6606 1.99411 24.9289 -0.378508 31.4698 0.0489877C42.7067 0.775731 50.5263 9.4967 50.8408 9.86008L51.0295 10.0952L106.774 93.9057C106.878 94.034 110.631 99.2495 109.394 106.496C108.346 112.587 104.174 118.166 96.9623 123.082C90.4424 127.528 84.174 129.089 78.304 127.699C69.9812 125.733 65.5787 118.487 65.0546 117.568L24.0904 55.9869L27.6962 53.6356L68.7863 115.43C68.8282 115.494 72.4969 121.971 79.3523 123.553C83.9644 124.621 89.0587 123.275 94.5094 119.555C100.673 115.345 104.258 110.728 105.117 105.833C106.082 100.382 103.231 96.3425 103.21 96.3211L47.5075 12.5747C46.1238 11.057 31.7633 -3.75571 15.6417 10.2875C-0.731373 24.5659 5.15958 38.3313 5.83044 39.742L79.8554 150.399L79.9393 150.57C79.9812 150.677 84.8659 161.685 95.3061 164.849C102.224 166.943 110.128 165.233 118.828 159.719C128.262 153.755 133.797 146.851 135.264 139.199C137.151 129.409 131.7 121.736 131.637 121.65L68.5976 26.8957L72.2034 24.5445L135.201 119.256C135.432 119.556 141.763 128.447 139.52 140.033C137.801 148.882 131.637 156.726 121.155 163.352C114.153 167.777 107.486 170 101.26 170Z" fill="#FBD24A"/>
</svg>
