<svg width="17" height="18" viewBox="0 0 17 18" fill="none" xmlns="http://www.w3.org/2000/svg">
<g filter="url(#filter0_i)">
<path d="M11.5938 9L16.2812 4.3125C16.8906 3.75 16.8906 2.8125 16.2812 2.25L15.25 1.21875C14.6875 0.609375 13.75 0.609375 13.1875 1.21875L8.5 5.90625L3.76562 1.21875C3.20312 0.609375 2.26562 0.609375 1.70312 1.21875L0.671875 2.25C0.0625 2.8125 0.0625 3.75 0.671875 4.3125L5.35938 9L0.671875 13.7344C0.0625 14.2969 0.0625 15.2344 0.671875 15.7969L1.70312 16.8281C2.26562 17.4375 3.20312 17.4375 3.76562 16.8281L8.5 12.1406L13.1875 16.8281C13.75 17.4375 14.6875 17.4375 15.25 16.8281L16.2812 15.7969C16.8906 15.2344 16.8906 14.2969 16.2812 13.7344L11.5938 9Z" fill="#FBD24A"/>
</g>
<defs>
<filter id="filter0_i" x="0.214844" y="0.761719" width="20.5234" height="20.5234" filterUnits="userSpaceOnUse" color-interpolation-filters="sRGB">
<feFlood flood-opacity="0" result="BackgroundImageFix"/>
<feBlend mode="normal" in="SourceGraphic" in2="BackgroundImageFix" result="shape"/>
<feColorMatrix in="SourceAlpha" type="matrix" values="0 0 0 0 0 0 0 0 0 0 0 0 0 0 0 0 0 0 127 0" result="hardAlpha"/>
<feOffset dx="4" dy="4"/>
<feGaussianBlur stdDeviation="10"/>
<feComposite in2="hardAlpha" operator="arithmetic" k2="-1" k3="1"/>
<feColorMatrix type="matrix" values="0 0 0 0 0 0 0 0 0 0 0 0 0 0 0 0 0 0 0.5 0"/>
<feBlend mode="normal" in2="shape" result="effect1_innerShadow"/>
</filter>
</defs>
</svg>
