<svg width="380" height="415" viewBox="0 0 380 415" fill="none" xmlns="http://www.w3.org/2000/svg">
<path d="M201.036 265.336C199.959 265.336 198.912 265.241 197.866 265.051C186.167 263.027 177.163 249.901 166.733 234.688C164.957 232.094 163.15 229.438 161.248 226.749C159.346 224.061 157.475 221.436 155.636 218.906C144.825 203.977 135.504 191.073 137.343 179.054C138.326 172.539 142.543 166.624 150.183 160.995C162.865 151.633 178.368 147.869 193.808 150.431C209.248 152.993 222.785 161.564 231.948 174.563C241.11 187.562 244.756 203.408 242.251 219.222C239.747 235.036 231.377 248.889 218.696 258.283C212.26 262.995 206.458 265.336 201.036 265.336ZM184.265 150.336C172.218 150.336 160.487 154.195 150.532 161.564C143.05 167.099 138.928 172.855 137.977 179.181C136.202 190.915 145.459 203.692 156.144 218.526C157.983 221.056 159.885 223.681 161.755 226.37C163.658 229.058 165.465 231.715 167.24 234.308C177.576 249.395 186.516 262.426 197.961 264.387C204.112 265.462 210.77 263.28 218.252 257.745C230.807 248.478 239.049 234.783 241.522 219.127C243.995 203.503 240.381 187.815 231.314 174.974C222.278 162.133 208.867 153.657 193.618 151.127C190.511 150.589 187.372 150.336 184.265 150.336Z" fill="#FBD24A"/>
<path d="M203.698 279.252C202.367 279.252 201.035 279.126 199.735 278.904C185.215 276.406 174.023 260.117 161.088 241.235C158.9 238.041 156.618 234.72 154.272 231.399C151.926 228.078 149.579 224.82 147.297 221.689C133.886 203.155 122.314 187.151 124.597 172.254C125.833 164.158 131.033 156.851 140.512 149.83C156.269 138.191 175.482 133.542 194.631 136.736C213.78 139.899 230.583 150.526 241.933 166.656C253.283 182.787 257.817 202.459 254.741 222.069C251.634 241.678 241.267 258.884 225.51 270.523C217.616 276.374 210.419 279.252 203.698 279.252ZM182.869 136.578C167.904 136.578 153.352 141.354 140.988 150.494C131.699 157.357 126.594 164.505 125.389 172.349C123.17 186.898 134.647 202.775 147.931 221.151C150.214 224.282 152.56 227.54 154.906 230.893C157.252 234.245 159.535 237.535 161.722 240.729C174.562 259.453 185.659 275.615 199.83 278.05C207.471 279.379 215.714 276.659 225.003 269.795C240.57 258.314 250.842 241.298 253.885 221.879C256.961 202.491 252.459 183.008 241.236 167.099C230.012 151.158 213.4 140.658 194.441 137.527C190.636 136.894 186.736 136.578 182.869 136.578Z" fill="#FBD24A"/>
<path d="M206.173 292.283C204.588 292.283 203.034 292.156 201.513 291.871C184.329 288.898 171.14 269.668 155.827 247.339C153.227 243.544 150.564 239.653 147.774 235.7C145.016 231.778 142.226 227.919 139.531 224.219C123.711 202.332 110.015 183.419 112.71 165.802C114.168 156.25 120.319 147.584 131.51 139.298C150.121 125.571 172.821 120.068 195.489 123.8C218.125 127.564 238.004 140.12 251.414 159.16C264.825 178.2 270.215 201.478 266.537 224.662C262.86 247.845 250.59 268.182 232.012 281.94C222.627 288.898 214.131 292.283 206.173 292.283ZM181.571 123.705C163.88 123.705 146.696 129.366 132.081 140.152C121.08 148.28 115.056 156.725 113.661 165.992C111.061 183.197 124.599 201.953 140.324 223.681C143.019 227.382 145.777 231.24 148.567 235.194C151.357 239.147 154.02 243.038 156.62 246.833C171.806 268.941 184.9 288.044 201.671 290.954C210.707 292.504 220.44 289.341 231.441 281.213C249.829 267.613 261.972 247.529 265.586 224.598C269.2 201.668 263.906 178.675 250.622 159.824C237.37 140.974 217.713 128.576 195.33 124.844C190.733 124.053 186.136 123.705 181.571 123.705Z" fill="#FBD24A"/>
<path d="M208.485 304.491C206.678 304.491 204.902 304.333 203.158 304.048C183.534 300.664 168.411 278.651 150.91 253.127C147.93 248.794 144.887 244.335 141.716 239.843C138.546 235.352 135.375 230.956 132.3 226.718C114.197 201.668 98.5355 180.035 101.611 159.888C103.259 148.976 110.298 139.045 123.138 129.588C144.411 113.869 170.408 107.575 196.31 111.876C222.213 116.178 244.913 130.537 260.257 152.329C275.602 174.12 281.752 200.719 277.568 227.255C273.383 253.791 259.338 277.038 238.065 292.757C227.317 300.601 217.615 304.491 208.485 304.491ZM180.363 111.655C160.136 111.655 140.48 118.107 123.772 130.474C111.217 139.741 104.306 149.419 102.689 160.046C99.7086 179.718 115.212 201.194 133.188 226.022C136.263 230.26 139.434 234.656 142.604 239.179C145.774 243.702 148.85 248.162 151.83 252.495C169.172 277.797 184.168 299.62 203.349 302.941C213.684 304.713 224.812 301.075 237.399 291.808C258.45 276.279 272.305 253.285 276.458 227.066C280.611 200.846 274.524 174.531 259.369 152.993C244.183 131.454 221.737 117.253 196.12 113.015C190.857 112.066 185.595 111.655 180.363 111.655Z" fill="#FBD24A"/>
<path d="M210.992 317.68C208.931 317.68 206.934 317.522 204.936 317.174C182.617 313.316 165.465 288.298 145.586 259.326C142.226 254.424 138.738 249.332 135.124 244.208C131.51 239.084 127.927 234.119 124.44 229.28C103.864 200.814 86.1099 176.239 89.5656 153.372C91.4361 140.974 99.4572 129.683 114.009 118.929C138.168 101.091 167.684 93.9432 197.105 98.814C226.527 103.685 252.334 120.005 269.771 144.77C287.208 169.534 294.183 199.739 289.427 229.881C284.671 260.022 268.725 286.432 244.566 304.27C232.392 313.252 221.359 317.68 210.992 317.68ZM179.066 98.6242C156.08 98.6242 133.761 105.962 114.77 120.005C100.503 130.537 92.6726 141.543 90.8337 153.594C87.4414 175.955 105.069 200.308 125.454 228.552C128.942 233.391 132.556 238.389 136.17 243.481C139.785 248.604 143.272 253.697 146.633 258.599C166.352 287.349 183.377 312.145 205.158 315.909C216.889 317.933 229.57 313.79 243.837 303.258C267.742 285.609 283.499 259.485 288.191 229.691C292.915 199.897 286.003 170.009 268.756 145.56C251.509 121.08 226.019 104.95 196.915 100.142C190.955 99.0986 184.994 98.6242 179.066 98.6242Z" fill="#FBD24A"/>
<path d="M213.621 331.438C211.307 331.438 209.056 331.249 206.805 330.869C181.696 326.536 162.42 298.387 140.037 265.81C136.232 260.275 132.332 254.582 128.274 248.826C124.216 243.07 120.158 237.471 116.227 232.031C93.0831 200.024 73.1096 172.381 77.0092 146.636C79.1334 132.688 88.1372 120.005 104.496 107.923C131.698 87.8391 164.892 79.8056 197.991 85.3088C231.09 90.8121 260.099 109.156 279.724 136.989C299.349 164.822 307.18 198.822 301.822 232.727C296.464 266.601 278.551 296.331 251.349 316.415C237.685 326.441 225.257 331.438 213.621 331.438ZM177.701 85.0242C151.862 85.0242 126.753 93.2792 105.384 109.062C89.342 120.922 80.5283 133.289 78.4675 146.825C74.6314 171.97 94.4781 199.391 117.432 231.146C121.363 236.586 125.421 242.184 129.479 247.94C133.537 253.697 137.469 259.421 141.241 264.956C163.402 297.28 182.552 325.208 207.059 329.414C220.279 331.691 234.514 327.042 250.557 315.182C277.441 295.319 295.164 265.937 300.458 232.443C305.753 198.948 297.986 165.328 278.614 137.811C259.212 110.295 230.52 92.1405 197.801 86.7005C191.08 85.5619 184.359 85.0242 177.701 85.0242Z" fill="#FBD24A"/>
<path d="M216.253 345.292C213.685 345.292 211.18 345.07 208.675 344.659C180.776 339.852 159.312 308.54 134.456 272.326C130.24 266.19 125.896 259.832 121.394 253.444C116.892 247.055 112.39 240.792 108.015 234.783C82.2718 199.202 60.0473 168.459 64.4224 139.836C66.7685 124.306 76.7869 110.232 94.985 96.7583C125.231 74.4289 162.134 65.5097 198.942 71.5823C235.75 77.6865 268.025 98.0866 289.806 129.05C311.618 160.014 320.336 197.81 314.376 235.479C308.416 273.148 288.474 306.199 258.26 328.529C243.042 339.757 229.219 345.292 216.253 345.292ZM176.306 71.2977C147.582 71.2977 119.651 80.4698 95.8727 98.0234C78.0234 111.212 68.2269 124.939 65.9442 140.025C61.6958 167.985 83.7301 198.474 109.252 233.771C113.627 239.812 118.129 246.043 122.631 252.463C127.133 258.852 131.508 265.209 135.725 271.377C160.39 307.306 181.664 338.365 208.929 343.046C223.608 345.576 239.46 340.389 257.309 327.2C287.206 305.124 306.894 272.452 312.791 235.194C318.688 197.936 310.064 160.584 288.506 129.968C266.947 99.3518 235.053 79.1731 198.657 73.1321C191.206 71.9302 183.724 71.2977 176.306 71.2977Z" fill="#FBD24A"/>
<path d="M218.886 358.986C216.064 358.986 213.306 358.733 210.548 358.29C179.858 353.008 156.27 318.597 128.942 278.746C124.313 271.977 119.526 265.019 114.58 257.966C109.634 250.945 104.656 244.081 99.8692 237.439C71.5893 198.316 47.1456 164.505 51.9329 133.035C54.5326 115.956 65.5339 100.49 85.539 85.688C118.796 61.1447 159.377 51.3083 199.832 58.0135C240.286 64.7186 275.762 87.1745 299.762 121.206C323.731 155.238 333.337 196.797 326.774 238.23C320.211 279.663 298.304 316.004 265.078 340.547C248.307 352.914 233.121 358.986 218.886 358.986ZM174.944 57.7604C143.367 57.7604 112.646 67.8498 86.5218 87.1429C66.8971 101.629 56.1178 116.747 53.6132 133.32C48.9527 164.062 73.1744 197.588 101.232 236.396C106.02 243.038 110.997 249.901 115.943 256.954C120.889 264.007 125.708 270.997 130.337 277.734C157.444 317.237 180.841 351.364 210.833 356.551C226.97 359.334 244.376 353.641 264.032 339.155C296.909 314.897 318.563 278.967 325.03 238.009C331.498 197.05 322.019 155.966 298.304 122.313C274.59 88.661 239.525 66.4581 199.515 59.8479C191.303 58.4246 183.092 57.7604 174.944 57.7604Z" fill="#FBD24A"/>
<path d="M221.23 371.321C218.187 371.321 215.175 371.068 212.226 370.562C179.064 364.837 153.542 327.643 123.963 284.565C118.953 277.259 113.786 269.7 108.428 262.109C103.07 254.519 97.7118 247.086 92.5124 239.906C61.9181 197.588 35.5088 161.058 40.6765 127.026C43.4665 108.555 55.3554 91.8239 77.0408 75.8201C112.993 49.2841 156.871 38.6571 200.623 45.8999C244.374 53.1428 282.736 77.4331 308.67 114.217C334.603 151.032 344.971 195.975 337.901 240.76C330.799 285.546 307.116 324.859 271.164 351.395C253.061 364.742 236.639 371.321 221.23 371.321ZM173.706 45.5836C139.561 45.5836 106.335 56.4953 78.0871 77.3698C56.8455 93.0574 45.2101 109.377 42.4836 127.311C37.4427 160.552 63.6302 196.797 93.9708 238.768C99.1703 245.947 104.528 253.38 109.886 260.971C115.244 268.593 120.444 276.152 125.453 283.458C154.779 326.188 180.079 363.098 212.48 368.664C229.949 371.669 248.749 365.533 269.991 349.846C305.531 323.594 328.96 284.755 335.967 240.444C342.973 196.165 332.701 151.727 307.084 115.324C281.436 78.9196 243.518 54.9455 200.242 47.766C191.429 46.3111 182.552 45.5836 173.706 45.5836Z" fill="#FBD24A"/>
<path d="M223.419 382.897C220.153 382.897 216.951 382.613 213.781 382.075C178.272 375.939 150.944 336.119 119.303 290.006C113.945 282.194 108.397 274.097 102.659 265.968C96.9201 257.84 91.1817 249.87 85.6335 242.216C52.8834 196.924 24.6034 157.8 30.1199 121.365C33.1318 101.597 45.845 83.6642 69.0206 66.5534C107.509 38.1198 154.494 26.7653 201.321 34.5142C248.148 42.2947 289.236 68.2613 316.977 107.67C344.718 147.078 355.846 195.185 348.269 243.133C340.691 291.081 315.328 333.146 276.84 361.58C257.5 375.844 239.905 382.897 223.419 382.897ZM172.566 34.1663C136.011 34.1663 100.439 45.837 70.1937 68.1981C47.462 84.9926 35.0023 102.483 32.0855 121.65C26.6642 157.231 54.7222 196.039 87.2187 240.982C92.7669 248.668 98.537 256.606 104.275 264.766C110.014 272.927 115.562 280.992 120.92 288.835C152.307 334.57 179.414 374.073 214.098 380.082C232.803 383.308 252.935 376.73 275.667 359.935C313.712 331.85 338.789 290.259 346.303 242.817C353.817 195.406 342.816 147.838 315.392 108.872C287.936 69.906 247.323 44.224 201.036 36.5384C191.525 34.9254 182.013 34.1663 172.566 34.1663Z" fill="#FBD24A"/>
<path d="M225.511 393.809C222.055 393.809 218.631 393.524 215.27 392.923C177.543 386.408 148.534 344.121 114.896 295.098C109.189 286.779 103.292 278.208 97.2049 269.542C91.1178 260.908 84.9989 252.463 79.102 244.303C44.3228 196.197 14.2675 154.637 20.1327 115.925C23.3348 94.9236 36.8407 75.8835 61.4746 57.6974C102.341 27.4926 152.275 15.4423 202.018 23.6656C251.762 31.9205 295.418 59.5002 324.902 101.376C354.387 143.22 366.181 194.331 358.128 245.283C350.075 296.236 323.127 340.927 282.229 371.1C261.685 386.345 243.011 393.809 225.511 393.809ZM171.487 23.3493C132.65 23.3493 94.8906 35.7475 62.7428 59.5001C38.6161 77.3384 25.3638 95.9041 22.2568 116.304C16.5184 154.1 46.3201 195.311 80.814 243.038C86.7109 251.198 92.8298 259.643 98.917 268.309C105.004 276.975 110.901 285.546 116.608 293.864C149.929 342.445 178.716 384.415 215.587 390.772C235.434 394.188 256.834 387.199 280.993 369.36C321.415 339.503 348.046 295.351 356.036 244.967C363.993 194.584 352.326 144.074 323.19 102.672C294.055 61.303 250.906 34.0079 201.701 25.8479C191.619 24.2032 181.506 23.3493 171.487 23.3493Z" fill="#FBD24A"/>
<path d="M227.448 403.962C223.802 403.962 220.188 403.645 216.637 403.044C176.848 396.181 146.254 351.554 110.809 299.905C104.785 291.144 98.6029 282.099 92.167 272.958C85.7311 263.849 79.2952 254.93 73.0812 246.327C36.3998 195.596 4.69591 151.759 10.9099 110.959C14.2705 88.8195 28.5373 68.7357 54.5028 49.5691C97.6201 17.7196 150.249 5.00515 202.719 13.7029C255.189 22.4006 301.191 51.4984 332.293 95.6512C363.394 139.804 375.822 193.698 367.325 247.403C358.829 301.139 330.422 348.233 287.305 380.082C265.587 396.086 245.899 403.962 227.448 403.962ZM170.476 13.3234C129.514 13.3234 89.6941 26.4174 55.8026 51.4352C30.3444 70.2223 16.3947 89.8316 13.1292 111.307C7.07374 151.158 38.4923 194.647 74.8884 244.967C81.1023 253.57 87.5383 262.489 93.9742 271.598C100.41 280.739 106.624 289.784 112.648 298.545C147.807 349.783 178.148 394.03 217.017 400.735C237.942 404.341 260.515 396.972 285.973 378.153C328.583 346.683 356.673 300.095 365.074 246.992C373.476 193.888 361.175 140.595 330.422 96.948C299.669 53.3012 254.174 24.5513 202.306 15.9485C191.717 14.2089 181.065 13.3234 170.476 13.3234Z" fill="#FBD24A"/>
<path d="M229.539 415C225.671 415 221.867 414.684 218.126 414.02C176.118 406.777 143.78 359.651 106.338 305.092C99.9968 295.825 93.4341 286.274 86.6495 276.659C79.8648 267.012 73.0802 257.619 66.4857 248.542C27.7435 194.964 -5.73577 148.66 0.82694 105.551C4.37778 82.1779 19.4371 60.9555 46.861 40.7135C92.3878 7.0929 147.965 -6.38069 203.383 2.82307C258.802 12.0268 307.404 42.7377 340.249 89.3575C373.094 135.977 386.22 192.908 377.248 249.649C368.275 306.389 338.252 356.172 292.725 389.792C269.835 406.682 249.037 415 229.539 415ZM169.365 2.41194C126.089 2.41194 84.0497 16.2334 48.256 42.6745C21.3711 62.5369 6.62873 83.2216 3.173 105.931C-3.23119 148.028 29.9628 193.951 68.388 247.087C74.9507 256.196 81.767 265.589 88.5516 275.236C95.3363 284.882 101.899 294.465 108.271 303.701C145.397 357.816 177.449 404.563 218.506 411.647C240.635 415.474 264.477 407.662 291.362 387.8C336.381 354.559 366.056 305.346 374.933 249.237C383.81 193.129 370.812 136.863 338.347 90.7491C305.882 44.667 257.819 14.2724 203.035 5.19518C191.78 3.32912 180.556 2.41194 169.365 2.41194Z" fill="#FBD24A"/>
</svg>
